<svg xmlns="http://www.w3.org/2000/svg" viewBox="0 0 800 390" width="800" height="390">
  <defs>
    <linearGradient id="featBg" x1="0%" y1="0%" x2="100%" y2="100%">
      <stop offset="0%" style="stop-color:#0d1117;stop-opacity:1" />
      <stop offset="100%" style="stop-color:#161b22;stop-opacity:1" />
    </linearGradient>
    <linearGradient id="featAccent" x1="0%" y1="0%" x2="100%" y2="0%">
      <stop offset="0%" style="stop-color:#f72585;stop-opacity:1" />
      <stop offset="100%" style="stop-color:#b5179e;stop-opacity:1" />
    </linearGradient>
  </defs>
  <rect width="800" height="390" fill="url(#featBg)" rx="12"/>
  <text x="400" y="38" font-family="Segoe UI,Arial,sans-serif" font-size="20" fill="#ffffff" text-anchor="middle" font-weight="bold">Key Features</text>
  <rect x="300" y="48" width="200" height="3" fill="url(#featAccent)" rx="2"/>
  
  <rect x="30" y="65" width="235" height="130" rx="10" fill="#161b22" stroke="#f72585" stroke-width="1.5"/>
  <text x="50" y="95" font-family="Segoe UI,Arial,sans-serif" font-size="20">⚡</text>
  <text x="78" y="97" font-family="Segoe UI,Arial,sans-serif" font-size="13" fill="#ffffff" font-weight="bold">Emergency Triage</text>
  <text x="45" y="123" font-family="Segoe UI,Arial,sans-serif" font-size="11" fill="#8b949e">Decision-tree assessment: conscious/br</text>
  <text x="45" y="140" font-family="Segoe UI,Arial,sans-serif" font-size="11" fill="#8b949e">eathing/bleeding status → action plan</text>
  <text x="45" y="157" font-family="Segoe UI,Arial,sans-serif" font-size="11" fill="#8b949e"></text>
  <rect x="30" y="185" width="235" height="10" rx="0" ry="5" fill="#f72585" opacity="0.15"/>
  <rect x="285" y="65" width="235" height="130" rx="10" fill="#161b22" stroke="#f72585" stroke-width="1.5"/>
  <text x="305" y="95" font-family="Segoe UI,Arial,sans-serif" font-size="20">🔍</text>
  <text x="333" y="97" font-family="Segoe UI,Arial,sans-serif" font-size="13" fill="#ffffff" font-weight="bold">8-Step CPR Guide</text>
  <text x="300" y="123" font-family="Segoe UI,Arial,sans-serif" font-size="11" fill="#8b949e">Complete CPR instructions with timing,</text>
  <text x="300" y="140" font-family="Segoe UI,Arial,sans-serif" font-size="11" fill="#8b949e"> hand placement, and compression detai</text>
  <text x="300" y="157" font-family="Segoe UI,Arial,sans-serif" font-size="11" fill="#8b949e">ls</text>
  <rect x="285" y="185" width="235" height="10" rx="0" ry="5" fill="#f72585" opacity="0.15"/>
  <rect x="540" y="65" width="235" height="130" rx="10" fill="#161b22" stroke="#f72585" stroke-width="1.5"/>
  <text x="560" y="95" font-family="Segoe UI,Arial,sans-serif" font-size="20">📊</text>
  <text x="588" y="97" font-family="Segoe UI,Arial,sans-serif" font-size="13" fill="#ffffff" font-weight="bold">Supply Checklist</text>
  <text x="555" y="123" font-family="Segoe UI,Arial,sans-serif" font-size="11" fill="#8b949e">20 items organized by priority: essent</text>
  <text x="555" y="140" font-family="Segoe UI,Arial,sans-serif" font-size="11" fill="#8b949e">ial, recommended, optional</text>
  <text x="555" y="157" font-family="Segoe UI,Arial,sans-serif" font-size="11" fill="#8b949e"></text>
  <rect x="540" y="185" width="235" height="10" rx="0" ry="5" fill="#f72585" opacity="0.15"/>
  <rect x="30" y="220" width="235" height="130" rx="10" fill="#161b22" stroke="#f72585" stroke-width="1.5"/>
  <text x="50" y="250" font-family="Segoe UI,Arial,sans-serif" font-size="20">🔄</text>
  <text x="78" y="252" font-family="Segoe UI,Arial,sans-serif" font-size="13" fill="#ffffff" font-weight="bold">15 Emergency Scenarios</text>
  <text x="45" y="278" font-family="Segoe UI,Arial,sans-serif" font-size="11" fill="#8b949e">Common situations (burns, fractures, c</text>
  <text x="45" y="295" font-family="Segoe UI,Arial,sans-serif" font-size="11" fill="#8b949e">hoking, etc.) with severity levels</text>
  <text x="45" y="312" font-family="Segoe UI,Arial,sans-serif" font-size="11" fill="#8b949e"></text>
  <rect x="30" y="340" width="235" height="10" rx="0" ry="5" fill="#f72585" opacity="0.15"/>
  <rect x="285" y="220" width="235" height="130" rx="10" fill="#161b22" stroke="#f72585" stroke-width="1.5"/>
  <text x="305" y="250" font-family="Segoe UI,Arial,sans-serif" font-size="20">🛡️</text>
  <text x="333" y="252" font-family="Segoe UI,Arial,sans-serif" font-size="13" fill="#ffffff" font-weight="bold">Contact Manager</text>
  <text x="300" y="278" font-family="Segoe UI,Arial,sans-serif" font-size="11" fill="#8b949e">In-memory emergency contact storage wi</text>
  <text x="300" y="295" font-family="Segoe UI,Arial,sans-serif" font-size="11" fill="#8b949e">th name, number, relationship, default</text>
  <text x="300" y="312" font-family="Segoe UI,Arial,sans-serif" font-size="11" fill="#8b949e">s</text>
  <rect x="285" y="340" width="235" height="10" rx="0" ry="5" fill="#f72585" opacity="0.15"/>
  <rect x="540" y="220" width="235" height="130" rx="10" fill="#161b22" stroke="#f72585" stroke-width="1.5"/>
  <text x="560" y="250" font-family="Segoe UI,Arial,sans-serif" font-size="20">📋</text>
  <text x="588" y="252" font-family="Segoe UI,Arial,sans-serif" font-size="13" fill="#ffffff" font-weight="bold">Interactive Chat</text>
  <text x="555" y="278" font-family="Segoe UI,Arial,sans-serif" font-size="11" fill="#8b949e">Multi-turn first aid Q&A with AI-power</text>
  <text x="555" y="295" font-family="Segoe UI,Arial,sans-serif" font-size="11" fill="#8b949e">ed responses</text>
  <text x="555" y="312" font-family="Segoe UI,Arial,sans-serif" font-size="11" fill="#8b949e"></text>
  <rect x="540" y="340" width="235" height="10" rx="0" ry="5" fill="#f72585" opacity="0.15"/>
</svg>